PathFileType	4	(X/Y/Z)
DataRate	CameraRate	NumFrames	NumMarkers	Units	OrigDataRate	OrigDataStartFrame	OrigNumFrames
120	120	4	142	mm	120	484	553	
Frame#	Time	 STRN			 T1			 T8			 T10			 T12			 C7			 CLAV			 LANK			 RANK			 LANI			 RANI			 LASI			 RASI			 LPSI			 RPSI			 LSHO			 RSHO			 LTOE			 RTOE			 RHEE			 LHEE			 LKNE			 RKNE			 LKNI			 RKNI			 RIWR			 LIWR			 RELB			 LELB			 RELBIN			 LELBIN			 LOWR			 ROWR			 RCLAV			 LCLAV			 RFHD			 LBHD			 LFHD			 RBHD			 LMT1			 LMT5			 RMT1			 RMT5			 Tracking_L5			 Tracking_L4			 Tracking_L3			 Tracking_L2			 Tracking_L1			 Tracking_T11			 Tracking_T9			 Tracking_T7			 Tracking_T6			 Tracking_T5			 Tracking_T4			 Tracking_T3			 Tracking_T2			 rthumb			 rindex			 rmiddle			 rring			 rpinky			 lthumb			 lindex			 lmiddle			 lring			 lpinky			 ROOT			 Spine1			 Spine2			 Spine3			 LHIPJ			 RHIPJ			 LKJC			 RKJC			 LAJC			 RAJC			 LFOOT			 RFOOT			 NECK			 LCOL			 RCOL			 HEAD			 LSHOULDER			 RSHOULDER			 LELC			 RELC			 LWRIST			 RWRIST			 left_index1			 left_index2			 left_index3			 left_middle1			 left_middle2			 left_middle3			 left_pinky1			 left_pinky2			 left_pinky3			 left_ring1			 left_ring2			 left_ring3			 left_thumb1			 left_thumb2			 left_thumb3			 right_index1			 right_index2			 right_index3			 right_middle1			 right_middle2			 right_middle3			 right_pinky1			 right_pinky2			 right_pinky3			 right_ring1			 right_ring2			 right_ring3			 right_thumb1			 right_thumb2			 right_thumb3			 MASI			 MPSI			 MHIPJ			 CENTER			 Virtual_LWRIST			 Virtual_RWRIST			 Virtual_LAJC			 Virtual_RAJC			 Virtual_LKJC			 Virtual_RKJC			 Virtual_LELC			 Virtual_RELC			 Virtual_Ground_RAJC			 Virtual_Ground_LAJC			 Virtual_Ground_RFOOT			 Virtual_Ground_LFOOT			 Virtual_Ground_RTOE			 Virtual_Ground_LTOE			 Virtual_Ground_RMT1			 Virtual_Ground_LMT1			 Virtual_Ground_RMT5			 Virtual_Ground_LMT5			 Virtual_Ground_RHEE			 Virtual_Ground_LHEE		
		X1	Y1	Z1	X2	Y2	Z2	X3	Y3	Z3	X4	Y4	Z4	X5	Y5	Z5	X6	Y6	Z6	X7	Y7	Z7	X8	Y8	Z8	X9	Y9	Z9	X10	Y10	Z10	X11	Y11	Z11	X12	Y12	Z12	X13	Y13	Z13	X14	Y14	Z14	X15	Y15	Z15	X16	Y16	Z16	X17	Y17	Z17	X18	Y18	Z18	X19	Y19	Z19	X20	Y20	Z20	X21	Y21	Z21	X22	Y22	Z22	X23	Y23	Z23	X24	Y24	Z24	X25	Y25	Z25	X26	Y26	Z26	X27	Y27	Z27	X28	Y28	Z28	X29	Y29	Z29	X30	Y30	Z30	X31	Y31	Z31	X32	Y32	Z32	X33	Y33	Z33	X34	Y34	Z34	X35	Y35	Z35	X36	Y36	Z36	X37	Y37	Z37	X38	Y38	Z38	X39	Y39	Z39	X40	Y40	Z40	X41	Y41	Z41	X42	Y42	Z42	X43	Y43	Z43	X44	Y44	Z44	X45	Y45	Z45	X46	Y46	Z46	X47	Y47	Z47	X48	Y48	Z48	X49	Y49	Z49	X50	Y50	Z50	X51	Y51	Z51	X52	Y52	Z52	X53	Y53	Z53	X54	Y54	Z54	X55	Y55	Z55	X56	Y56	Z56	X57	Y57	Z57	X58	Y58	Z58	X59	Y59	Z59	X60	Y60	Z60	X61	Y61	Z61	X62	Y62	Z62	X63	Y63	Z63	X64	Y64	Z64	X65	Y65	Z65	X66	Y66	Z66	X67	Y67	Z67	X68	Y68	Z68	X69	Y69	Z69	X70	Y70	Z70	X71	Y71	Z71	X72	Y72	Z72	X73	Y73	Z73	X74	Y74	Z74	X75	Y75	Z75	X76	Y76	Z76	X77	Y77	Z77	X78	Y78	Z78	X79	Y79	Z79	X80	Y80	Z80	X81	Y81	Z81	X82	Y82	Z82	X83	Y83	Z83	X84	Y84	Z84	X85	Y85	Z85	X86	Y86	Z86	X87	Y87	Z87	X88	Y88	Z88	X89	Y89	Z89	X90	Y90	Z90	X91	Y91	Z91	X92	Y92	Z92	X93	Y93	Z93	X94	Y94	Z94	X95	Y95	Z95	X96	Y96	Z96	X97	Y97	Z97	X98	Y98	Z98	X99	Y99	Z99	X100	Y100	Z100	X101	Y101	Z101	X102	Y102	Z102	X103	Y103	Z103	X104	Y104	Z104	X105	Y105	Z105	X106	Y106	Z106	X107	Y107	Z107	X108	Y108	Z108	X109	Y109	Z109	X110	Y110	Z110	X111	Y111	Z111	X112	Y112	Z112	X113	Y113	Z113	X114	Y114	Z114	X115	Y115	Z115	X116	Y116	Z116	X117	Y117	Z117	X118	Y118	Z118	X119	Y119	Z119	X120	Y120	Z120	X121	Y121	Z121	X122	Y122	Z122	X123	Y123	Z123	X124	Y124	Z124	X125	Y125	Z125	X126	Y126	Z126	X127	Y127	Z127	X128	Y128	Z128	X129	Y129	Z129	X130	Y130	Z130	X131	Y131	Z131	X132	Y132	Z132	X133	Y133	Z133	X134	Y134	Z134	X135	Y135	Z135	X136	Y136	Z136	X137	Y137	Z137	X138	Y138	Z138	X139	Y139	Z139	X140	Y140	Z140	X141	Y141	Z141	X142	Y142	Z142

484	4.0250	462.361664	-585.773349	1130.966187	477.409244	-399.928480	1421.471715	465.314507	-313.246965	1227.096915	460.441232	-315.300882	1176.474333	457.568139	-322.382003	1124.531031	480.187088	-415.866166	1435.462594	467.130393	-540.119529	1340.063214	701.362550	-342.473656	61.628480	579.672217	-261.067599	158.986166	638.058841	-338.409722	80.444954	629.851401	-287.941605	194.062188	609.979928	-509.831011	898.032844	343.200415	-509.135485	856.083214	527.327955	-289.295256	963.973224	406.818360	-292.237848	948.624194	611.374676	-482.692510	1377.028942	330.577850	-473.008364	1386.991858	659.154534	-512.634754	-10.031441	604.627788	-400.804341	34.888525	652.138054	-199.422792	152.501479	667.643785	-272.238612	6.376465	705.546081	-484.438658	458.877891	389.356971	-540.622711	418.157518	598.306417	-488.323897	441.685379	501.391411	-558.475256	435.687840	321.957499	-592.928827	864.495158	649.809778	-630.814672	855.291128	188.719600	-437.034726	1032.920957	780.847251	-473.707199	1028.963208	262.659401	-389.556348	1014.918208	718.088388	-417.861760	999.171257	685.605109	-603.977740	814.980268	299.571782	-555.837810	819.956064	392.556429	-520.435393	1356.992483	543.846905	-527.369618	1350.025773	408.550560	-567.697823	1614.728570	541.388452	-472.252309	1651.600122	506.088555	-596.814454	1617.914200	444.365561	-442.360699	1646.891475	664.709568	-460.308552	14.335176	734.444797	-439.265251	-1.818696	602.210283	-362.410039	73.373340	546.858788	-310.655832	48.795123	460.853130	-307.213843	994.350433	458.273828	-316.462219	1019.304633	457.066506	-324.278533	1048.101783	456.011027	-327.080578	1073.970199	456.234813	-325.801760	1098.999143	458.818436	-318.753928	1150.112748	462.730229	-313.515782	1202.566147	467.171550	-314.917952	1249.549627	471.016794	-323.339790	1289.977431	472.712368	-335.518777	1322.641492	474.515766	-357.278377	1364.901781	475.425482	-371.781290	1387.513518	476.146489	-385.410339	1405.325770	442.047983	-641.086161	802.532613	439.237565	-653.446376	751.357079	431.119114	-636.338294	730.587482	420.320004	-616.897881	730.780065	400.858134	-595.068157	726.472795	543.347716	-670.593381	766.850710	548.682451	-677.741528	728.283048	560.022295	-668.401778	709.163666	576.032698	-651.863277	711.961687	600.990236	-638.597190	709.617078	478.103906	-430.096686	887.116373	462.444633	-386.162192	1011.128068	467.763573	-441.211969	1133.506417	465.881795	-458.477288	1183.864117	550.502479	-412.997842	814.935625	428.933531	-422.783434	787.711382	663.677037	-480.343968	455.844700	433.181554	-543.831110	425.871342	656.923831	-342.702389	53.197581	622.891128	-276.785582	166.220918	704.602480	-455.519080	-16.016582	574.850142	-338.199139	41.505415	465.458542	-470.208764	1394.952178	544.535756	-467.373401	1296.150446	390.114576	-455.755949	1304.220676	472.032607	-524.347603	1472.342134	674.036324	-474.052489	1258.568287	268.134654	-465.746373	1279.336691	750.869572	-444.191396	1014.438987	225.460112	-409.005612	1024.547815	664.116323	-614.963055	827.497423	317.427516	-574.530303	832.124114	602.920890	-688.049018	776.069939	582.138836	-702.402532	754.594266	566.042900	-691.664636	741.604149	617.556155	-689.299643	755.201638	599.305987	-696.877956	730.040908	581.911981	-684.440255	717.695296	649.861276	-655.216575	738.039434	637.911379	-654.599726	721.493661	622.271895	-645.780742	713.183582	636.521935	-672.776282	744.264901	616.150141	-678.785980	723.612726	597.074330	-666.497111	714.171350	614.302218	-637.152493	814.555705	585.637391	-646.381438	804.163635	567.444086	-662.585616	791.854858	374.450654	-654.688358	787.290335	396.223515	-670.975029	766.942263	416.307539	-662.380040	758.305490	364.400446	-650.273263	762.329936	385.850459	-659.098864	740.036666	407.374024	-649.349153	733.342767	345.241785	-607.305110	743.064046	360.723972	-606.633604	729.809344	379.061848	-600.191832	726.560831	352.160066	-628.339589	749.260604	374.589503	-636.217535	731.558502	397.087514	-626.683056	727.777958	363.823593	-605.452895	831.044972	393.442810	-617.349982	825.441360	412.721395	-634.131908	814.388037	476.590171	-509.483248	877.058029	467.073157	-290.766552	956.298709	489.718005	-417.890638	801.323503	471.831664	-400.124900	916.678369	667.707443	-617.396206	835.135698	310.764641	-574.383318	842.225611	669.710696	-340.441689	71.036717	604.761809	-274.504602	176.524177	651.926249	-486.381277	450.281635	445.374191	-549.548984	426.922679	749.467820	-445.784479	1014.067233	225.689501	-413.295537	1023.919582	604.761809	-739.163160	176.524177	669.710696	-739.163160	71.036717	574.850142	-739.163160	41.505415	704.602480	-739.163160	-16.016582	604.627788	-739.163160	34.888525	659.154534	-739.163160	-10.031441	602.210283	-739.163160	73.373340	664.709568	-739.163160	14.335176	546.858788	-739.163160	48.795123	734.444797	-739.163160	-1.818696	652.138054	-739.163160	152.501479	667.643785	-739.163160	6.376465
485	4.0333	461.428195	-585.788012	1132.457018	477.358401	-399.524570	1422.731400	465.126395	-313.115597	1228.244543	460.269213	-315.213591	1177.668333	457.460850	-322.332650	1125.746608	480.150342	-415.416956	1436.746836	466.685385	-539.785743	1341.586590	702.143669	-343.105435	62.344577	579.422653	-262.498438	157.505900	638.861299	-338.862658	81.298433	629.789770	-289.651573	192.146689	609.290361	-510.495543	899.038732	342.615068	-508.616626	857.305169	527.602613	-289.660692	965.178490	407.104343	-292.021483	949.909389	611.103714	-482.585788	1378.296614	330.422699	-472.543925	1388.880014	659.172714	-512.691975	-10.204766	600.952148	-403.145552	33.978131	652.436852	-201.601610	149.738044	668.506324	-272.536427	7.565286	705.327511	-484.453946	459.995478	388.995647	-539.298236	419.228107	598.091125	-488.041639	442.675710	500.884593	-557.642221	436.554939	320.485920	-591.136098	863.316715	654.059052	-628.121853	850.253820	188.538730	-437.331080	1034.928083	779.631376	-472.769141	1029.660225	262.237102	-389.640599	1016.682982	716.262639	-417.336106	1000.297666	690.182865	-599.864066	811.231971	297.069222	-553.896189	819.455683	392.226607	-519.988656	1358.665943	543.451369	-527.190685	1351.395488	408.581734	-567.074656	1616.220713	541.661441	-471.803486	1652.770996	506.112814	-596.322715	1619.224072	444.669098	-441.784173	1648.289919	665.011883	-460.563987	14.416482	734.730124	-439.655989	-1.861845	599.613488	-364.498436	72.284721	544.344783	-312.326640	48.297074	461.059004	-307.255626	995.571733	458.420396	-316.491872	1020.513177	457.132876	-324.294657	1049.307942	456.016213	-327.075392	1075.181007	456.184983	-325.770169	1100.215673	458.677739	-318.685830	1151.324272	462.544471	-313.407660	1203.735232	466.987997	-314.752936	1250.682950	470.850885	-323.131889	1291.114450	472.574204	-335.267186	1323.808193	474.392444	-356.968611	1366.117835	475.325495	-371.436089	1388.751149	476.070732	-385.033667	1406.581879	439.449161	-638.464451	798.611820	435.613334	-650.587916	747.495592	426.982701	-633.435965	726.987302	416.123569	-614.069581	727.518797	396.510184	-592.355490	723.724425	550.452948	-668.425918	758.824766	556.799829	-674.800158	720.269442	568.415940	-664.918780	701.578617	583.987236	-648.177147	705.005646	608.742058	-634.379506	703.471482	477.779627	-430.167884	888.332427	462.384909	-386.212915	1012.369990	467.191875	-441.231161	1134.783745	465.318263	-458.394051	1185.176730	550.219536	-413.372099	816.122055	428.593248	-422.587961	788.955390	663.444996	-480.308026	456.970423	432.786375	-542.745948	426.818252	657.740235	-343.233079	54.113831	622.631252	-278.580934	164.335698	704.799056	-455.706030	-16.077135	571.932018	-340.156406	40.757503	465.223312	-469.786853	1396.283746	544.142604	-467.230469	1297.348142	389.752775	-455.364317	1305.652618	471.895695	-523.862779	1473.709226	673.627317	-474.027723	1259.732485	267.662048	-465.483308	1281.371355	749.252558	-443.483621	1015.310645	225.151569	-409.278840	1026.436090	668.627918	-611.467004	823.171437	315.264702	-572.533011	831.215739	610.106528	-684.867442	769.145131	590.119183	-699.265003	746.956408	574.121535	-688.628376	733.763158	625.246584	-685.489476	748.611510	607.742012	-693.004072	722.907782	590.398192	-680.704057	710.355341	657.263100	-650.507748	732.767105	645.692647	-649.849832	715.955317	630.079985	-641.199887	707.420230	644.131958	-668.423176	738.392830	624.370456	-674.485266	717.170835	605.280817	-662.414551	707.479239	619.577944	-634.401739	808.700800	591.351509	-644.012094	797.486901	573.774397	-660.360754	784.492910	371.619344	-652.273595	784.819424	393.010020	-668.387830	763.935804	412.867665	-659.675896	754.901826	361.012459	-647.796571	760.101557	382.008553	-656.443179	737.311602	403.342962	-646.578670	730.193675	341.269910	-604.827583	741.436481	356.458068	-604.038656	727.852166	374.695420	-597.509146	724.233925	348.404437	-625.859141	747.393072	370.475590	-633.572936	729.175866	392.848253	-623.931766	724.948585	361.748815	-603.262305	829.000890	391.286433	-615.015864	822.706401	410.387129	-631.673813	811.167240	475.952715	-509.556085	878.171951	467.353478	-290.841088	957.543939	489.406392	-417.980030	802.538723	471.653096	-400.198586	917.857945	672.120959	-613.992959	830.742896	308.777571	-572.516143	841.386199	670.502484	-340.984046	71.821505	604.606211	-276.075006	174.826294	651.709318	-486.247793	451.335594	444.940120	-548.470229	427.891523	747.947007	-445.052624	1014.978945	225.387916	-413.485840	1025.805533	604.606211	-739.163160	174.826294	670.502484	-739.163160	71.821505	571.932018	-739.163160	40.757503	704.799056	-739.163160	-16.077135	600.952148	-739.163160	33.978131	659.172714	-739.163160	-10.204766	599.613488	-739.163160	72.284721	665.011883	-739.163160	14.416482	544.344783	-739.163160	48.297074	734.730124	-739.163160	-1.861845	652.436852	-739.163160	149.738044	668.506324	-739.163160	7.565286
486	4.0417	460.315228	-585.726857	1134.231329	477.102041	-399.118394	1424.272060	464.835167	-312.923789	1229.685903	460.024863	-315.058142	1179.117799	457.309246	-322.232366	1127.179742	479.901522	-414.966762	1438.299060	466.022402	-539.419293	1343.344212	702.708542	-343.692333	63.056104	577.447593	-263.950437	155.722007	639.440835	-339.359403	82.149617	628.061771	-291.292101	189.912304	608.710587	-510.997355	900.202215	342.053145	-507.999241	858.721852	527.849257	-290.004760	966.641843	407.375991	-291.798383	951.431811	610.608280	-482.483834	1379.873753	330.067188	-472.012252	1391.019940	659.198165	-512.803674	-10.298739	595.927954	-405.489504	32.890011	650.873601	-203.705698	146.617398	669.028103	-272.870779	8.732666	705.030918	-484.045029	461.225063	387.750059	-538.002253	420.553267	597.794235	-487.571836	443.808347	499.547958	-556.834638	437.470317	318.631262	-589.292169	862.504184	658.163488	-625.173688	845.600784	187.785894	-437.672287	1037.240505	778.201163	-471.848458	1030.654788	261.204004	-389.760256	1018.733740	714.185297	-416.834414	1001.774907	694.501162	-595.418870	807.913423	294.185430	-551.916182	819.334745	391.680598	-519.490242	1360.562086	542.835891	-527.002335	1353.043079	408.362716	-566.534996	1617.921591	541.693449	-471.456796	1654.216051	505.891919	-595.907629	1620.733619	444.734752	-441.309601	1649.964929	665.247679	-460.852861	14.543046	734.908164	-439.982295	-1.876841	595.524609	-366.583914	70.953242	540.256262	-314.133137	47.496546	461.269349	-307.313472	997.001469	458.573371	-316.540688	1021.920443	457.199603	-324.319988	1050.709844	456.010491	-327.057630	1076.587439	456.114233	-325.706124	1101.633072	458.479583	-318.556041	1152.770758	462.271690	-313.232988	1205.180883	466.687918	-314.536422	1252.122283	470.543504	-322.893649	1292.568564	472.280830	-334.991962	1325.290561	474.095494	-356.638461	1367.643833	475.040406	-371.075094	1390.292048	475.799471	-384.646446	1408.132076	436.397910	-635.765791	795.003355	431.538969	-647.635341	743.992329	422.393471	-630.446970	723.766327	411.473066	-611.154258	724.643052	391.715735	-589.576125	721.375167	557.826281	-666.405678	751.068532	565.253854	-671.962380	712.582469	577.112317	-661.490083	694.358230	592.138231	-644.507587	698.428869	616.601527	-630.085707	697.734356	477.455646	-430.174291	889.733732	462.303340	-386.283576	1013.823867	466.498464	-441.178769	1136.315227	464.616716	-458.232850	1186.744928	549.933493	-413.610488	817.507803	428.256959	-422.282606	790.386975	663.108647	-479.951531	458.229959	431.546479	-541.695595	427.994221	658.343136	-343.803257	55.047024	620.619297	-280.349910	162.153587	704.903245	-455.881596	-16.101193	567.501307	-342.185378	39.726544	464.767456	-469.348222	1397.866607	543.566525	-467.061311	1298.828721	389.208436	-454.911292	1307.311654	471.522748	-523.381948	1475.314379	673.048079	-474.010438	1261.230111	267.000705	-465.119660	1283.664584	747.400999	-442.806751	1016.501427	224.243432	-409.611017	1028.618336	672.908366	-607.675433	819.256961	312.733561	-570.472479	830.688000	617.554307	-681.569934	762.628615	598.483086	-696.080267	739.718795	582.566798	-685.616910	726.290762	633.213520	-681.498647	742.478609	616.544306	-689.012885	716.225326	599.226296	-676.929235	703.429520	664.757550	-645.511270	727.997482	653.598309	-644.858241	710.909724	637.998521	-636.446774	702.116728	651.928604	-663.823545	733.009040	632.856607	-670.012116	711.200774	613.727868	-658.245564	701.216638	624.806464	-631.537855	803.191602	597.110748	-641.636968	791.117013	580.265880	-658.188581	777.428627	368.374467	-649.782836	782.719433	389.363766	-665.720403	761.299849	408.980757	-656.887829	751.866102	357.205003	-645.247817	758.261323	377.727032	-653.711617	734.976232	398.858100	-643.728316	727.430344	336.878240	-602.284968	740.219653	351.758748	-601.375997	726.306319	369.884640	-594.755113	722.313523	344.229013	-623.310924	745.927811	365.923166	-630.856454	727.194548	388.157099	-621.104062	722.514629	359.282941	-600.997090	827.315748	388.722032	-612.600446	820.320010	407.630891	-629.130065	808.290839	475.381866	-509.498298	879.462034	467.612624	-290.901572	959.036827	489.095226	-417.946547	803.947389	471.497245	-400.199935	919.249430	676.332325	-610.296279	826.757103	306.408346	-570.604175	840.919465	671.074688	-341.525868	72.602861	602.754682	-277.621269	172.817156	651.412576	-485.808432	452.516705	443.649009	-547.418445	429.011792	746.193230	-444.341436	1016.214848	224.494949	-413.716272	1027.987123	602.754682	-739.163160	172.817156	671.074688	-739.163160	72.602861	567.501307	-739.163160	39.726544	704.903245	-739.163160	-16.101193	595.927954	-739.163160	32.890011	659.198165	-739.163160	-10.298739	595.524609	-739.163160	70.953242	665.247679	-739.163160	14.543046	540.256262	-739.163160	47.496546	734.908164	-739.163160	-1.876841	650.873601	-739.163160	146.617398	669.028103	-739.163160	8.732666
487	4.0500	458.987325	-585.608542	1136.190295	476.640075	-398.610175	1425.977468	464.360058	-312.666565	1231.295466	459.627777	-314.837426	1180.733681	457.024813	-322.068542	1128.780961	479.438663	-414.391160	1440.010548	465.185940	-538.973749	1345.292568	702.756941	-344.178528	63.789859	573.950589	-265.557528	153.645590	639.465213	-339.979649	82.996026	624.805272	-292.979181	187.472239	607.862949	-511.382699	901.437581	341.169685	-507.206261	860.368311	527.914286	-290.277719	968.244791	407.466143	-291.488558	953.160346	609.929383	-482.258141	1381.633162	329.518229	-471.389771	1393.330455	659.460545	-512.995362	-10.392291	590.038896	-408.064246	31.697527	647.666812	-205.873623	143.268123	668.757617	-273.237407	9.897308	704.577744	-483.317614	462.555259	385.458946	-536.689281	422.099262	597.352326	-486.982971	445.046246	497.206092	-556.041598	438.482672	316.426247	-587.200820	861.877382	662.234128	-621.974647	841.059506	186.663613	-437.805951	1039.712429	776.627779	-470.943779	1031.776428	259.853750	-389.744908	1020.969629	711.878955	-416.457206	1003.371000	698.846817	-590.799749	804.825783	290.874153	-549.761951	819.417000	390.947491	-518.917799	1362.642884	542.050838	-526.719213	1354.897738	407.915711	-565.879107	1619.819880	541.479528	-470.997185	1655.924678	505.437374	-595.365644	1622.457623	444.552094	-440.728128	1651.880860	665.465772	-461.193830	14.689999	734.995723	-440.064341	-1.804573	590.339243	-368.866146	69.448963	535.049498	-316.281974	46.307102	461.332917	-307.305306	998.599887	458.592027	-316.530198	1023.494959	457.139075	-324.286222	1052.278876	455.880255	-326.977760	1078.160048	455.922753	-325.577050	1103.216171	458.141506	-318.363696	1154.384136	461.832136	-312.993497	1206.793547	466.192424	-314.255774	1253.732324	470.031619	-322.596133	1294.197559	471.785873	-334.655911	1326.947451	473.596156	-356.236577	1369.343281	474.556267	-370.633870	1392.008662	475.327939	-384.171873	1409.855723	433.021426	-632.564962	791.566133	427.133977	-644.265413	740.735114	417.417645	-627.100766	720.780730	406.384170	-607.899249	721.981943	386.436582	-586.507678	719.228983	565.312386	-663.609147	743.239641	573.859870	-668.319881	704.901278	586.011410	-657.290697	687.194288	600.521028	-640.147626	691.940546	624.706566	-625.201583	692.146838	476.869792	-430.080622	891.279519	462.041676	-386.287063	1015.443087	465.632766	-441.060573	1138.008237	463.730037	-458.001614	1188.475132	549.339592	-413.734704	818.995953	427.597404	-421.847671	791.997075	662.598252	-479.347080	459.610611	429.292589	-540.645540	429.391235	658.432961	-344.445676	56.002155	617.022038	-282.214373	159.776047	704.998970	-455.929965	-16.069395	562.058806	-344.501466	38.396969	464.119047	-468.843251	1399.610758	542.801261	-466.817111	1300.474405	388.474196	-454.397023	1309.129000	470.959097	-522.735834	1477.149367	672.275186	-473.884314	1262.871504	266.152114	-464.649558	1286.100149	745.346010	-442.205399	1017.817855	223.000124	-409.780502	1030.981898	677.205801	-603.667378	815.523088	309.799522	-568.196535	830.349088	624.972224	-677.723229	756.205142	606.840551	-692.236423	732.546508	591.081977	-681.877971	718.853712	641.170859	-676.996768	736.499429	625.385106	-684.411526	709.677935	608.174503	-672.472537	696.604371	672.340751	-640.136778	723.476410	661.641061	-639.427245	706.099451	646.115005	-631.190717	697.015047	659.764647	-658.788085	727.836251	641.428471	-665.000737	705.412388	622.338057	-653.462529	695.093989	630.068779	-628.235996	797.752559	602.929771	-638.695955	784.756243	586.813927	-655.357718	770.343006	364.861578	-646.989942	780.883968	385.461539	-662.723601	758.941948	404.796630	-653.730690	749.087155	353.103489	-642.463148	756.701767	373.142809	-650.721252	732.927561	394.027054	-640.572488	724.928737	332.077473	-599.590123	739.257574	346.628368	-598.540485	725.009561	364.612639	-591.784537	720.621884	339.699596	-620.581210	744.733691	361.008912	-627.925754	725.485861	383.063018	-618.008375	720.326364	356.465101	-598.392367	825.820625	385.813951	-609.774411	818.117738	404.553473	-626.140535	805.609643	474.516317	-509.294480	880.902946	467.690215	-290.883139	960.702568	488.468498	-417.791188	805.496514	471.103266	-400.088809	920.802757	680.540472	-606.387198	822.942644	303.650200	-568.481386	840.647191	671.111077	-342.079088	73.392943	599.377930	-279.268354	170.558915	650.965035	-485.150293	453.800753	441.332519	-546.365440	430.290967	744.253367	-443.700492	1017.573714	223.258682	-413.775429	1030.341029	599.377930	-739.163160	170.558915	671.111077	-739.163160	73.392943	562.058806	-739.163160	38.396969	704.998970	-739.163160	-16.069395	590.038896	-739.163160	31.697527	659.460545	-739.163160	-10.392291	590.339243	-739.163160	69.448963	665.465772	-739.163160	14.689999	535.049498	-739.163160	46.307102	734.995723	-739.163160	-1.804573	647.666812	-739.163160	143.268123	668.757617	-739.163160	9.897308
